{"accessors":[{"name":"TCBA-Mesh_positions","componentType":5126,"count":6112,"min":[-2.4736549854278564,-1.8337880373001099,0.07815799862146378],"max":[1.2969460487365723,1.9368129968643188,3.5094048976898193],"type":"VEC3","bufferView":0,"byteOffset":0},{"name":"TCBA-Mesh_normals","componentType":5126,"count":6112,"min":[-1,-1,-1],"max":[1,1,1],"type":"VEC3","bufferView":0,"byteOffset":73344},{"name":"TCBA-Mesh_texcoords","componentType":5126,"count":6112,"min":[0.9589840173721313,0.5],"max":[0.9589840173721313,0.5],"type":"VEC2","bufferView":1,"byteOffset":0},{"name":"TCBA-Mesh_0_indices","componentType":5123,"count":11760,"min":[0],"max":[6111],"type":"SCALAR","bufferView":2,"byteOffset":0}],"asset":{"generator":"obj2gltf","version":"2.0"},"buffers":[{"name":"TCBA","byteLength":219104,"uri":"data:application/octet-stream;base64,"}],"bufferViews":[{"name":"bufferView_0","buffer":0,"byteLength":146688,"byteOffset":0,"byteStride":12,"target":34962},{"name":"bufferView_1","buffer":0,"byteLength":48896,"byteOffset":146688,"byteStride":8,"target":34962},{"name":"bufferView_2","buffer":0,"byteLength":23520,"byteOffset":195584,"target":34963}],"materials":[{"name":"palette","pbrMetallicRoughness":{"baseColorFactor":[1,1,1,1],"metallicFactor":0,"roughnessFactor":1},"emissiveFactor":[0,0,0],"alphaMode":"OPAQUE","doubleSided":false}],"meshes":[{"name":"TCBA-Mesh","primitives":[{"attributes":{"POSITION":0,"NORMAL":1,"TEXCOORD_0":2},"indices":3,"material":0,"mode":4}]}],"nodes":[{"name":"TCBA","mesh":0}],"scene":0,"scenes":[{"nodes":[0]}]}
