{"accessors":[{"name":"ThoreauCIA-Mesh_positions","componentType":5126,"count":6270,"min":[-3.723371982574463,-4.126511096954346,-2.491816997528076],"max":[3.8378570079803467,3.4347190856933594,2.398036003112793],"type":"VEC3","bufferView":0,"byteOffset":0},{"name":"ThoreauCIA-Mesh_normals","componentType":5126,"count":6270,"min":[-0.7073000073432922,-0.7074000239372253,-1],"max":[0.7074000239372253,0.7071999907493591,1],"type":"VEC3","bufferView":0,"byteOffset":75240},{"name":"ThoreauCIA-Mesh_texcoords","componentType":5126,"count":6270,"min":[0.0015709999715909362,0.0018629999831318855],"max":[0.998429000377655,0.998429000377655],"type":"VEC2","bufferView":1,"byteOffset":0},{"name":"ThoreauCIA-Mesh_0_indices","componentType":5123,"count":11916,"min":[0],"max":[6269],"type":"SCALAR","bufferView":2,"byteOffset":0}],"asset":{"generator":"obj2gltf","version":"2.0"},"buffers":[{"name":"TCBA","byteLength":224472,"uri":"data:application/octet-stream;base64,"}],"bufferViews":[{"name":"bufferView_0","buffer":0,"byteLength":150480,"byteOffset":0,"byteStride":12,"target":34962},{"name":"bufferView_1","buffer":0,"byteLength":50160,"byteOffset":150480,"byteStride":8,"target":34962},{"name":"bufferView_2","buffer":0,"byteLength":23832,"byteOffset":200640,"target":34963}],"materials":[{"name":"palette","pbrMetallicRoughness":{"baseColorFactor":[1,1,1,1],"metallicFactor":0,"roughnessFactor":1},"emissiveFactor":[0,0,0],"alphaMode":"OPAQUE","doubleSided":false}],"meshes":[{"name":"ThoreauCIA-Mesh","primitives":[{"attributes":{"POSITION":0,"NORMAL":1,"TEXCOORD_0":2},"indices":3,"material":0,"mode":4}]}],"nodes":[{"name":"ThoreauCIA","mesh":0}],"scene":0,"scenes":[{"nodes":[0]}]}
